<svg width="42" height="42" viewBox="0 0 42 42" fill="none" xmlns="http://www.w3.org/2000/svg">
<circle cx="21" cy="21" r="21" fill="#0055B8"/>
<path d="M20.3333 13.6667C20.3333 13.2985 20.6318 13 21 13C21.3682 13 21.6667 13.2985 21.6667 13.6667V28.3333C21.6667 28.7015 21.3682 29 21 29C20.6318 29 20.3333 28.7015 20.3333 28.3333V13.6667Z" fill="#FCFCFC"/>
<path d="M28.3333 20.3333C28.7015 20.3333 29 20.6318 29 21C29 21.3682 28.7015 21.6667 28.3333 21.6667L13.6667 21.6667C13.2985 21.6667 13 21.3682 13 21C13 20.6318 13.2985 20.3333 13.6667 20.3333L28.3333 20.3333Z" fill="#FCFCFC"/>
</svg>
